<svg width="32" height="32" viewBox="0 0 32 32" fill="none" xmlns="http://www.w3.org/2000/svg">
<path d="M7.85108 7.27577L7.85099 7.27578C6.8098 7.33383 5.98013 8.1982 5.96455 9.23721C5.96455 9.23733 5.96455 9.23745 5.96455 9.23757L5.21463 9.22647C5.2109 9.49583 5.20312 9.76512 5.19127 10.0342L7.85108 7.27577ZM7.85108 7.27577C11.003 7.09967 13.4909 6.06091 15.6072 3.99949L15.6151 3.99201C15.9716 3.66928 16.4978 3.6694 16.8539 3.99197L16.8618 3.99948C18.9782 6.06091 21.466 7.09968 24.618 7.27562C25.6596 7.3338 26.4892 8.19836 26.5045 9.23742L7.85108 7.27577ZM9.99378 24.7225C8.69058 23.4506 7.69349 21.9006 7.03255 20.1072L7.03254 20.1072C5.82035 16.8183 5.88131 13.168 5.93987 10.0981L5.94084 10.0604L16.453 28.2283C16.3801 28.2428 16.3071 28.25 16.2345 28.25C16.162 28.25 16.0889 28.2428 16.0154 28.2282C15.964 28.2179 15.9133 28.2041 15.8638 28.1869C13.4473 27.3443 11.48 26.1729 9.99378 24.7225ZM9.99378 24.7225L9.46994 25.2592M9.99378 24.7225L9.46994 25.2592M9.46994 25.2592C11.0489 26.8001 13.117 28.0235 15.6168 28.8951L5.19005 10.0812C5.13191 13.1295 5.0597 16.9232 6.32882 20.3666C7.0267 22.2602 8.08356 23.9062 9.46994 25.2592Z" stroke="url(#paint0_linear_1707_13160)" stroke-width="1.5"/>
<path d="M13.2694 16.7507L14.8739 18.4072L19.0829 14.0835" stroke="url(#paint1_linear_1707_13160)" stroke-width="1.5" stroke-linecap="round" stroke-linejoin="round"/>
<defs>
<linearGradient id="paint0_linear_1707_13160" x1="6.24189" y1="3" x2="28.7615" y2="26.5351" gradientUnits="userSpaceOnUse">
<stop stop-color="#C7FF51"/>
<stop offset="1" stop-color="#BA77FD"/>
</linearGradient>
<linearGradient id="paint1_linear_1707_13160" x1="14.3255" y1="13.0527" x2="17.4427" y2="19.1841" gradientUnits="userSpaceOnUse">
<stop stop-color="#C7FF51"/>
<stop offset="1" stop-color="#BA77FD"/>
</linearGradient>
</defs>
</svg>
